<?xml version="1.0" standalone="no"?>
<!DOCTYPE svg PUBLIC "-//W3C//DTD SVG 20010904//EN"
 "http://www.w3.org/TR/2001/REC-SVG-20010904/DTD/svg10.dtd">
<svg version="1.0" xmlns="http://www.w3.org/2000/svg"
 width="200.000000pt" height="200.000000pt" viewBox="0 0 200.000000 200.000000"
 preserveAspectRatio="xMidYMid meet">
<metadata>
Created by potrace 1.15, written by Peter Selinger 2001-2017
</metadata>
<g transform="translate(0.000000,200.000000) scale(0.100000,-0.100000)"
fill="#000000" stroke="none">
<path d="M440 1155 l0 -95 30 0 c25 0 30 4 30 25 0 22 4 25 33 25 45 0 57 15
57 72 0 58 -14 68 -94 68 l-56 0 0 -95z"/>
<path d="M620 1155 l0 -95 30 0 c27 0 30 3 30 30 0 23 4 30 20 30 16 0 20 -7
20 -30 0 -28 3 -30 35 -30 34 0 35 1 35 39 0 21 -6 44 -13 50 -8 6 -12 23 -9
39 6 45 -19 62 -89 62 l-59 0 0 -95z"/>
<path d="M833 1213 c-9 -21 -18 -64 -21 -95 l-4 -58 31 0 c24 0 31 4 31 20 0
13 7 20 20 20 13 0 20 -7 20 -20 0 -16 7 -20 35 -20 34 0 35 1 35 40 0 21 -9
64 -21 95 l-20 55 -45 0 c-42 0 -46 -2 -61 -37z"/>
<path d="M984 1235 c-9 -23 3 -45 26 -45 18 0 20 -6 20 -65 l0 -65 35 0 35 0
0 65 c0 58 2 65 20 65 16 0 20 7 20 30 l0 30 -75 0 c-58 0 -77 -4 -81 -15z"/>
<path d="M1170 1156 l0 -94 59 -7 c69 -8 81 -3 81 31 0 21 -4 24 -40 24 -22 0
-40 5 -40 10 0 6 14 10 30 10 25 0 30 4 30 25 0 21 -5 25 -32 26 -31 2 -31 2
7 8 34 5 40 10 43 34 l3 27 -70 0 -71 0 0 -94z"/>
<path d="M1342 1153 l3 -98 65 0 c63 0 65 1 68 28 3 26 1 27 -37 27 -23 0 -41
5 -41 10 0 6 14 10 30 10 25 0 30 4 30 24 0 20 -6 25 -32 29 -29 3 -27 4 10 5
40 2 42 4 42 32 l0 30 -70 0 -71 0 3 -97z"/>
<path d="M1512 1153 c3 -97 3 -98 28 -98 21 0 26 5 28 33 2 23 8 32 22 32 14
0 20 -9 22 -32 3 -29 7 -33 36 -36 l32 -3 0 52 c0 34 -6 59 -16 70 -12 13 -13
22 -5 38 17 31 13 41 -17 41 -23 0 -32 -8 -47 -37 l-20 -38 -3 38 c-3 34 -6
37 -33 37 l-30 0 3 -97z"/>
<path d="M250 895 l0 -95 35 0 c31 0 35 3 35 25 0 19 5 25 21 25 43 0 59 18
59 68 0 27 -5 53 -12 60 -7 7 -39 12 -75 12 l-63 0 0 -95z"/>
<path d="M444 953 c-9 -21 -19 -64 -22 -95 l-4 -58 31 0 c24 0 31 4 31 20 0
15 7 20 25 20 18 0 25 -5 25 -20 0 -16 7 -20 31 -20 l31 0 -4 58 c-3 31 -12
74 -21 95 -15 35 -18 37 -61 37 -43 0 -47 -2 -62 -37z"/>
<path d="M620 895 l0 -95 30 0 c27 0 30 3 30 30 0 23 5 30 19 30 14 0 21 -8
23 -27 2 -23 8 -29 36 -31 31 -3 32 -2 32 36 0 22 -6 45 -13 51 -8 6 -12 23
-9 41 7 47 -11 60 -84 60 l-64 0 0 -95z"/>
<path d="M810 965 c0 -16 6 -25 15 -25 11 0 15 -12 15 -45 0 -33 -4 -45 -15
-45 -9 0 -15 -9 -15 -25 0 -24 2 -25 65 -25 63 0 65 1 65 25 0 16 -6 25 -15
25 -11 0 -15 12 -15 45 0 33 4 45 15 45 9 0 15 9 15 25 0 24 -2 25 -65 25 -63
0 -65 -1 -65 -25z"/>
<path d="M970 895 l0 -95 29 0 c26 0 30 4 33 33 2 24 8 32 23 32 15 0 21 -8
23 -32 3 -29 7 -33 33 -33 l29 0 0 95 0 95 -29 0 c-26 0 -30 -4 -33 -32 -2
-25 -8 -33 -23 -33 -15 0 -21 8 -23 33 -3 28 -7 32 -33 32 l-29 0 0 -95z"/>
<path d="M1186 943 c-9 -26 -16 -68 -16 -95 0 -47 1 -48 30 -48 23 0 30 4 30
20 0 13 7 20 20 20 14 0 20 -7 20 -21 0 -17 5 -20 33 -17 31 3 32 4 31 49 0
25 -8 67 -18 92 -18 47 -18 47 -66 47 l-48 0 -16 -47z"/>
<path d="M1360 895 l0 -95 35 0 c32 0 35 2 35 30 0 23 4 30 20 30 16 0 20 -7
20 -30 0 -27 3 -30 30 -30 29 0 30 2 30 44 0 25 -5 48 -10 51 -6 3 -7 17 -4
30 3 13 1 33 -6 44 -9 18 -20 21 -80 21 l-70 0 0 -95z"/>
</g>
</svg>
